<svg height="512pt" viewBox="-34 0 512 512.0006" color="#dc0a0a" stroke="#dc0a0a" width="512pt" xmlns="http://www.w3.org/2000/svg"><path d="m34.132812 332.800781h26.1875l-26.613281 15.390625c-12.21875 7.085938-16.402343 22.71875-9.359375 34.964844l25.605469 44.347656c7.085937 12.226563 22.722656 16.417969 34.972656 9.371094l29.429688-16.992188c16.367187 14.570313 35.527343 25.664063 56.3125 32.609376v33.910156c.015625 14.128906 11.46875 25.582031 25.597656 25.597656h51.203125c14.128906-.015625 25.582031-11.46875 25.597656-25.597656v-33.910156c20.785156-6.945313 39.945313-18.039063 56.3125-32.609376l29.429688 16.992188c12.25 7.042969 27.886718 2.851562 34.972656-9.371094l25.605469-44.347656c7.042969-12.246094 2.855469-27.878906-9.359375-34.964844l-26.613282-15.390625h26.1875c18.851563 0 34.132813-15.28125 34.132813-34.132812 0-18.851563-15.28125-34.132813-34.132813-34.132813v-34.132812c.050782-84.003906-55.777343-157.785156-136.628906-180.574219-.175781-9.023437-2.78125-17.828125-7.542968-25.492187-2.0625-3.421876-4.53125-6.582032-7.355469-9.410157-11.070313-11.019531-26.5625-16.386719-42.078125-14.582031s-29.363282 10.589844-37.609375 23.855469c-4.816407 7.714843-7.453125 16.59375-7.628907 25.6875-80.925781 22.644531-136.808593 96.480469-136.625 180.515625v34.132812c-18.851562 0-34.132812 15.28125-34.132812 34.132813 0 18.851562 15.28125 34.132812 34.132812 34.132812zm332.542969 10.035157 34.816407 20.132812c4.070312 2.363281 5.464843 7.574219 3.117187 11.652344l-25.605469 44.351562c-1.132812 1.957032-2.996094 3.390625-5.183594 3.972656-2.183593.585938-4.511718.28125-6.472656-.851562l-34.890625-20.140625c-3.296875-1.894531-7.453125-1.382813-10.195312 1.257813-16.902344 16.3125-37.53125 28.257812-60.09375 34.796874-3.652344 1.054688-6.167969 4.398438-6.167969 8.199219v40.195313c-.003906 4.707031-3.824219 8.527344-8.53125 8.53125h-51.203125c-4.707031-.003906-8.527344-3.824219-8.53125-8.53125v-40.195313c0-3.800781-2.515625-7.144531-6.167969-8.199219-22.5625-6.539062-43.191406-18.484374-60.09375-34.796874-2.742187-2.644532-6.898437-3.15625-10.199218-1.257813l-34.882813 20.140625c-1.957031 1.132812-4.285156 1.441406-6.472656.855469-2.1875-.585938-4.050781-2.015625-5.179688-3.976563l-25.609375-44.351562c-2.347656-4.078125-.953125-9.289063 3.117188-11.652344l34.816406-20.132812c3.308594-1.914063 4.941406-5.796876 3.996094-9.5-.046875-.171876-.066406-.359376-.109375-.535157h62.769531c13.546875 31.09375 44.238281 51.195313 78.152344 51.195313 33.914062 0 64.605468-20.101563 78.152344-51.195313h62.769531c-.042969.175781-.066407.359375-.109375.535157-.945313 3.703124.683594 7.582031 3.992187 9.5zm-203.769531-10.035157h117.921875c-12.125 21.113281-34.613281 34.132813-58.960937 34.132813-24.347657 0-46.835938-13.019532-58.960938-34.132813zm-111.707031-102.398437c-.175781-74.578125 48.265625-140.5625 119.46875-162.738282v26.203126c0 4.714843 3.820312 8.535156 8.53125 8.535156 4.714843 0 8.535156-3.820313 8.535156-8.535156v-42.667969c-.03125-6.34375 1.746094-12.570313 5.121094-17.945313 5.488281-8.867187 14.730469-14.742187 25.089843-15.953125 10.355469-1.214843 20.703126 2.367188 28.097657 9.726563 1.871093 1.890625 3.507812 4.003906 4.878906 6.289062 3.347656 5.363282 5.109375 11.5625 5.078125 17.882813v42.667969c0 4.714843 3.820312 8.535156 8.535156 8.535156 4.710938 0 8.53125-3.820313 8.53125-8.535156v-26.304688c71.101563 22.378906 119.464844 88.296875 119.46875 162.839844v34.132812h-341.335937zm-17.066407 51.199218h375.46875c9.425782 0 17.066407 7.640626 17.066407 17.066407s-7.640625 17.066406-17.066407 17.066406h-375.46875c-9.425781 0-17.066406-7.640625-17.066406-17.066406s7.640625-17.066407 17.066406-17.066407zm0 0"/><path d="m113.433594 121.96875c-29.007813 32.058594-45.097656 73.730469-45.167969 116.964844 0 4.714844 3.820313 8.535156 8.535156 8.535156 4.710938 0 8.53125-3.820312 8.53125-8.535156.308594-38.671875 14.578125-75.929688 40.179688-104.910156 3.242187-3.351563 3.199219-8.683594-.101563-11.976563-3.300781-3.292969-8.632812-3.328125-11.976562-.078125zm0 0"/><path d="m153.601562 102.402344c0 4.710937-3.820312 8.53125-8.535156 8.53125-4.710937 0-8.53125-3.820313-8.53125-8.53125 0-4.714844 3.820313-8.535156 8.53125-8.535156 4.714844 0 8.535156 3.820312 8.535156 8.535156zm0 0"/></svg>