<?xml version="1.0" encoding="utf-8"?>
<!-- Generator: Adobe Illustrator 16.0.0, SVG Export Plug-In . SVG Version: 6.00 Build 0)  -->
<!DOCTYPE svg PUBLIC "-//W3C//DTD SVG 1.1//EN" "http://www.w3.org/Graphics/SVG/1.1/DTD/svg11.dtd">
<svg version="1.1" id="Layer_1" xmlns="http://www.w3.org/2000/svg" xmlns:xlink="http://www.w3.org/1999/xlink" x="0px" y="0px"
	 width="400px" height="150px" viewBox="0 0 400 150" enable-background="new 0 0 400 150" xml:space="preserve">
<g enable-background="new    ">
	<path fill="#FFFFFF" d="M133.05,54.2l-7.72,6.82c-2.71-3.77-5.47-5.66-8.28-5.66c-1.37,0-2.49,0.37-3.36,1.1s-1.31,1.56-1.31,2.48
		c0,0.92,0.31,1.79,0.93,2.61c0.85,1.09,3.4,3.44,7.65,7.04c3.98,3.33,6.39,5.43,7.24,6.29c2.11,2.14,3.61,4.18,4.5,6.13
		c0.88,1.95,1.32,4.08,1.32,6.39c0,4.5-1.55,8.21-4.66,11.14c-3.11,2.93-7.16,4.39-12.16,4.39c-3.9,0-7.3-0.96-10.2-2.87
		c-2.9-1.91-5.38-4.92-7.44-9.01l8.77-5.29c2.64,4.84,5.67,7.26,9.1,7.26c1.79,0,3.29-0.52,4.51-1.56s1.83-2.25,1.83-3.61
		c0-1.24-0.46-2.48-1.38-3.72c-0.92-1.24-2.95-3.14-6.08-5.7c-5.97-4.87-9.83-8.62-11.57-11.27c-1.74-2.64-2.61-5.28-2.61-7.92
		c0-3.8,1.45-7.06,4.34-9.78c2.9-2.72,6.47-4.08,10.72-4.08c2.73,0,5.34,0.63,7.81,1.9C127.49,48.54,130.17,50.85,133.05,54.2z"/>
	<path fill="#FFFFFF" d="M142.88,45.38h10.09v19.74c1.99-1.71,3.99-3,6-3.86c2.01-0.86,4.05-1.29,6.11-1.29
		c4.02,0,7.41,1.39,10.17,4.17c2.36,2.41,3.54,5.95,3.54,10.62v26.78h-10.02V83.78c0-4.69-0.22-7.87-0.67-9.54
		c-0.45-1.66-1.21-2.91-2.29-3.72c-1.08-0.82-2.42-1.23-4-1.23c-2.06,0-3.83,0.68-5.31,2.05c-1.48,1.37-2.5,3.23-3.07,5.59
		c-0.3,1.22-0.45,4-0.45,8.34v16.28h-10.09V45.38z"/>
	<path fill="#FFFFFF" d="M218.53,61.02h10.17v40.53h-10.17v-4.28c-1.98,1.89-3.97,3.25-5.97,4.08c-2,0.83-4.16,1.25-6.49,1.25
		c-5.23,0-9.76-2.03-13.58-6.09c-3.82-4.06-5.73-9.11-5.73-15.14c0-6.26,1.85-11.39,5.54-15.38c3.7-4,8.18-6,13.47-6
		c2.43,0,4.71,0.46,6.84,1.38c2.13,0.92,4.11,2.3,5.92,4.13V61.02z M207.84,69.36c-3.14,0-5.75,1.11-7.83,3.33
		c-2.08,2.22-3.12,5.07-3.12,8.55c0,3.5,1.06,6.38,3.17,8.64s4.72,3.39,7.81,3.39c3.19,0,5.84-1.11,7.94-3.33s3.16-5.13,3.16-8.73
		c0-3.53-1.05-6.38-3.16-8.57C213.72,70.46,211.06,69.36,207.84,69.36z"/>
	<path fill="#FFFFFF" d="M238.98,61.02h10.17v4.15c2.31-1.94,4.39-3.3,6.27-4.06c1.87-0.76,3.79-1.14,5.75-1.14
		c4.02,0,7.43,1.4,10.23,4.21c2.36,2.38,3.53,5.91,3.53,10.58v26.78h-10.06V83.8c0-4.84-0.22-8.05-0.65-9.64
		c-0.43-1.59-1.19-2.8-2.27-3.63c-1.08-0.83-2.41-1.25-4-1.25c-2.06,0-3.82,0.69-5.29,2.06c-1.47,1.38-2.5,3.28-3.07,5.71
		c-0.3,1.26-0.45,4.01-0.45,8.22v16.26h-10.17V61.02z"/>
	<path fill="#FFFFFF" d="M314.67,45.38h10.17v56.17h-10.17v-4.28c-1.98,1.89-3.97,3.25-5.97,4.08c-2,0.83-4.16,1.25-6.49,1.25
		c-5.23,0-9.76-2.03-13.58-6.09c-3.82-4.06-5.73-9.11-5.73-15.14c0-6.26,1.85-11.39,5.54-15.38c3.7-4,8.18-6,13.47-6
		c2.43,0,4.71,0.46,6.84,1.38c2.13,0.92,4.11,2.3,5.92,4.13V45.38z M303.98,69.36c-3.14,0-5.75,1.11-7.83,3.33
		c-2.08,2.22-3.12,5.07-3.12,8.55c0,3.5,1.06,6.38,3.17,8.64s4.72,3.39,7.81,3.39c3.19,0,5.84-1.11,7.94-3.33s3.16-5.13,3.16-8.73
		c0-3.53-1.05-6.38-3.16-8.57C309.86,70.46,307.2,69.36,303.98,69.36z"/>
	<path fill="#FFFFFF" d="M365.03,61.02h10.17v40.53h-10.17v-4.28c-1.98,1.89-3.97,3.25-5.97,4.08c-2,0.83-4.16,1.25-6.49,1.25
		c-5.23,0-9.76-2.03-13.58-6.09c-3.82-4.06-5.73-9.11-5.73-15.14c0-6.26,1.85-11.39,5.54-15.38c3.7-4,8.18-6,13.47-6
		c2.43,0,4.71,0.46,6.84,1.38c2.13,0.92,4.11,2.3,5.92,4.13V61.02z M354.34,69.36c-3.14,0-5.75,1.11-7.83,3.33
		c-2.08,2.22-3.12,5.07-3.12,8.55c0,3.5,1.06,6.38,3.17,8.64s4.72,3.39,7.81,3.39c3.19,0,5.84-1.11,7.94-3.33s3.16-5.13,3.16-8.73
		c0-3.53-1.05-6.38-3.16-8.57C360.22,70.46,357.56,69.36,354.34,69.36z"/>
</g>
<g>
	<path fill="#FFFFFF" d="M70.48,95.99l-47.2,47.2l0,0c-9.97-9.97-9.97-26.12,0-36.09l47.2-47.2l0,0
		C80.45,69.87,80.45,86.03,70.48,95.99z"/>
	<g>
		<path fill="#FFFFFF" d="M81.57,73.57c0.21,1.44,0.32,2.9,0.32,4.38c0,7.87-3.06,15.26-8.63,20.83L26.3,145.74
			c0.79,1.09,1.68,2.14,2.66,3.13l0,0l47.2-47.2C83.76,94.07,85.56,82.88,81.57,73.57z"/>
	</g>
	<g>
		<path fill="#FFFFFF" d="M90.17,8.47L24.93,73.71l0,0c-9.97-9.97-9.97-26.12,0-36.09L54.08,8.47C64.05-1.49,80.2-1.49,90.17,8.47
			L90.17,8.47z"/>
		<g>
			<polygon fill="#FFFFFF" points="45.26,79.56 66.21,58.61 50.37,53.83 29.25,74.96 			"/>
		</g>
	</g>
</g>
<rect x="328.29" y="95.54" fill="#FFFFFF" width="7.56" height="6.95"/>
<g>
</g>
<g>
</g>
<g>
</g>
<g>
</g>
<g>
</g>
<g>
</g>
</svg>
