<?xml version="1.0" encoding="utf-8"?>
<!-- Generator: Adobe Illustrator 16.0.0, SVG Export Plug-In . SVG Version: 6.00 Build 0)  -->
<!DOCTYPE svg PUBLIC "-//W3C//DTD SVG 1.1//EN" "http://www.w3.org/Graphics/SVG/1.1/DTD/svg11.dtd">
<svg version="1.1" id="Layer_1" xmlns="http://www.w3.org/2000/svg" xmlns:xlink="http://www.w3.org/1999/xlink" x="0px" y="0px"
	 width="450px" height="118px" viewBox="0 0 450 118" enable-background="new 0 0 450 118" xml:space="preserve">
<text transform="matrix(1 0 0 1 93.9614 94.1318)" fill="#2F192B" font-family="'CenturyGothic-Bold'" font-size="90.5586">Shanda</text>
<g>
	<path fill="#2F192B" d="M50.491,75.407l-36.776,36.777l0,0c-7.766-7.766-7.766-20.355,0-28.121l36.776-36.777l0,0
		C58.257,55.053,58.257,67.644,50.491,75.407z"/>
	<g>
		<path fill="#2F192B" d="M59.131,57.938c0.165,1.119,0.25,2.259,0.25,3.411c0,6.129-2.387,11.893-6.722,16.229l-36.595,36.594
			c0.617,0.854,1.306,1.672,2.075,2.441l0,0l36.776-36.779C60.837,73.913,62.238,65.19,59.131,57.938z"/>
	</g>
	<g>
		<path fill="#2F192B" d="M65.831,7.211L14.992,58.049l0,0c-7.765-7.765-7.765-20.355,0-28.121L37.709,7.211
			C45.475-0.554,58.064-0.554,65.831,7.211L65.831,7.211z"/>
		<g>
			<polygon fill="#2F192B" points="30.835,62.606 47.16,46.282 34.821,42.558 18.36,59.018 			"/>
		</g>
	</g>
</g>
<rect x="364.712" y="83.731" fill="#2F192B" width="11.398" height="10.48"/>
</svg>
